<svg xmlns="http://www.w3.org/2000/svg" xmlns:xlink="http://www.w3.org/1999/xlink" version="1.1" width="640" height="480" viewBox="0 0 640 480">
<defs>
<clipPath id="clip_0">
<path transform="matrix(1,0,0,-1,0,480)" d="M0 480H640V0H0Z"/>
</clipPath>
</defs>
<g id="layer_1" data-name="Layer 1">
<g clip-path="url(#clip_0)">
<path transform="matrix(1,0,0,-1,322.6758,83.96481)" d="M0 0C14.222 1.807 28.972 .896 42.529-3.956 52.775-7.652 62.453-14.017 68.312-23.379 72.028-29.238 73.869-36.199 73.787-43.125 73.705-49.449 74.465-56.122 71.604-62.008 66.334-73.294 54.814-80.344 43.084-83.341 53.672-85.497 64.191-90 71.631-98.07 77.312-104.011 80.563-112.203 80.446-120.437 80.316-128.424 81.247-136.637 78.667-144.357 75.231-155.376 66.97-164.342 57.169-170.166 43.357-178.476 26.891-181.363 10.943-180.933-2.437-180.549-16.132-178.222-27.911-171.569-37.568-166.272-45.445-157.751-49.764-147.601-52.262-141.961-53.72-135.904-54.418-129.786-40.839-129.786-27.267-129.786-13.688-129.792-12.97-135.645-10.232-141.394-5.462-144.994 .685-149.743 8.884-150.613 16.392-149.983 23.119-149.401 30.169-146.541 33.872-140.606 37.369-135.282 37.403-128.677 37.26-122.538 37.451-116.871 35.433-110.951 31.059-107.187 25.721-102.525 18.514-100.835 11.628-100.226 5.297-99.829-1.047-100.13-7.385-99.986-7.474-90.302-7.419-80.617-7.412-70.939 .767-70.673 9.109-71.706 17.124-69.625 22.223-68.271 27.329-65.273 29.491-60.242 31.531-55.958 30.99-51.119 31.052-46.526 31.031-42.29 29.868-37.793 26.733-34.768 22.456-30.484 16.05-29.348 10.219-29.491 4.462-29.43-1.574-31.23-5.633-35.466-9.356-39.162-11.211-44.357-11.656-49.511-25.234-49.613-38.82-49.531-52.406-49.552-51.94-37.191-46.232-25.289-37.321-16.782-27.24-7.131-13.675-1.854 0 0" fill="#ffffff"/>
<path transform="matrix(1,0,0,-1,240.9019,361.5371)" d="M0 0C6.899 .014 13.805-.027 20.71 .014 25.146-17.623 29.628-35.261 33.96-52.926 38.663-35.288 43.296-17.637 47.971 .007 54.637-.021 61.303 .021 67.976-.014 67.99-21.97 67.976-43.926 67.976-65.889 62.774-65.882 57.566-65.875 52.365-65.896 52.33-55.417 52.358-44.938 52.344-34.46 52.303-30.908 52.495-27.342 52.07-23.804 48.799-37.896 44.85-51.83 41.332-65.868 36.144-65.889 30.956-65.889 25.768-65.875 21.963-51.208 18.014-36.575 14.222-21.907 14.023-36.555 14.195-51.215 14.14-65.868 9.424-65.889 4.708-65.889-.007-65.875 0-43.919-.021-21.963 0 0" fill="#ffffff"/>
<path transform="matrix(1,0,0,-1,347.0889,372.41889)" d="M0 0C-2.245-9.438-4.483-18.883-6.659-28.342-2.163-28.376 2.341-28.355 6.837-28.355 4.579-18.896 2.245-9.459 0 0M-29.779-54.986C-23.482-33.037-17.22-11.074-10.95 10.882-3.641 10.752 3.771 11.122 11.013 10.704 17.692-11.17 24.276-33.092 30.833-55.014 25.241-54.993 19.649-55.021 14.064-54.986 12.751-50.182 11.402-45.391 10.033-40.6 3.463-40.613-3.114-40.634-9.685-40.586-10.964-45.377-12.121-50.202-13.373-55-18.842-55-24.311-55.014-29.779-54.986" fill="#ffffff"/>
<path transform="matrix(1,0,0,-1,384.7451,361.55079)" d="M0 0C5.996 .027 11.984 .014 17.979 .007 21.689-6.953 25.386-13.928 29.047-20.915 33.14-14.085 36.678-6.933 40.572 .014 46.376 .021 52.181 .007 57.984 .014 51.776-9.883 45.486-19.738 39.286-29.642 46.198-41.722 53.125-53.795 60.064-65.854 53.871-65.882 47.67-65.882 41.476-65.848 37.562-58.065 33.53-50.346 29.608-42.57 29.334-42.098 29.026-41.653 28.685-41.249 24.495-49.489 20.143-57.641 15.94-65.868 9.897-65.875 3.847-65.861-2.203-65.882 4.777-54.294 11.697-42.659 18.63-31.045 12.416-20.696 6.215-10.348 0 0" fill="#ffffff"/>
<path transform="matrix(1,0,0,-1,110.1646,57.546388)" d="M0 0C22.544 13.51 45.035 27.144 67.565 40.688 67.586-63.904 67.497-168.497 67.606-273.089 57.313-279.351 46.958-285.525 36.65-291.773 24.263-299.152 12.011-306.769-.452-314.01-.335-211.526-.438-109.034-.404-6.55-.253-4.38-.896-2.046 0 0" fill="#7fc5de"/>
<path transform="matrix(1,0,0,-1,322.6758,83.96481)" d="M0 0C-13.675-1.854-27.24-7.131-37.321-16.782-46.232-25.289-51.94-37.191-52.406-49.552-38.82-49.531-25.234-49.613-11.656-49.511-11.211-44.357-9.356-39.162-5.633-35.466-1.574-31.23 4.462-29.43 10.219-29.491 16.05-29.348 22.456-30.484 26.733-34.768 29.868-37.793 31.031-42.29 31.052-46.526 30.99-51.119 31.531-55.958 29.491-60.242 27.329-65.273 22.223-68.271 17.124-69.625 9.109-71.706 .767-70.673-7.412-70.939-7.419-80.617-7.474-90.302-7.385-99.986-1.047-100.13 5.297-99.829 11.628-100.226 18.514-100.835 25.721-102.525 31.059-107.187 35.433-110.951 37.451-116.871 37.26-122.538 37.403-128.677 37.369-135.282 33.872-140.606 30.169-146.541 23.119-149.401 16.392-149.983 8.884-150.613 .685-149.743-5.462-144.994-10.232-141.394-12.97-135.645-13.688-129.792-27.267-129.786-40.839-129.786-54.418-129.786-53.72-135.904-52.262-141.961-49.764-147.601-45.445-157.751-37.568-166.272-27.911-171.569-16.132-178.222-2.437-180.549 10.943-180.933 26.891-181.363 43.357-178.476 57.169-170.166 66.97-164.342 75.231-155.376 78.667-144.357 81.247-136.637 80.316-128.424 80.446-120.437 80.563-112.203 77.312-104.011 71.631-98.07 64.191-90 53.672-85.497 43.084-83.341 54.814-80.344 66.334-73.294 71.604-62.008 74.465-56.122 73.705-49.449 73.787-43.125 73.869-36.199 72.028-29.238 68.312-23.379 62.453-14.017 52.775-7.652 42.529-3.956 28.972 .896 14.222 1.807 0 0M-144.946 67.107C-45.322 67.134 54.302 67.107 153.925 67.121 160.058 67.203 166.128 64.602 170.379 60.194 174.369 56.02 176.771 50.312 176.723 44.515 176.771 28.807 176.716 13.093 176.75-2.614 176.806-83.937 176.806-165.259 176.75-246.581 69.537-246.767-37.684-246.588-144.905-246.671-145.014-142.078-144.925-37.485-144.946 67.107" fill="#39a5cc"/>
<path transform="matrix(1,0,0,-1,384.7451,361.55079)" d="M0 0C6.215-10.348 12.416-20.696 18.63-31.045 11.697-42.659 4.777-54.294-2.203-65.882 3.847-65.861 9.897-65.875 15.94-65.868 20.143-57.641 24.495-49.489 28.685-41.249 29.026-41.653 29.334-42.098 29.608-42.57 33.53-50.346 37.562-58.065 41.476-65.848 47.67-65.882 53.871-65.882 60.064-65.854 53.125-53.795 46.198-41.722 39.286-29.642 45.486-19.738 51.776-9.883 57.984 .014 52.181 .007 46.376 .021 40.572 .014 36.678-6.933 33.14-14.085 29.047-20.915 25.386-13.928 21.689-6.953 17.979 .007 11.984 .014 5.996 .027 0 0M-67.435-65.854C-61.967-65.882-56.498-65.868-51.029-65.868-49.777-61.07-48.62-56.245-47.341-51.454-40.771-51.502-34.193-51.481-27.623-51.468-26.254-56.259-24.905-61.05-23.592-65.854-18.007-65.889-12.415-65.861-6.823-65.882-13.38-43.96-19.964-22.038-26.644-.164-33.885 .254-41.297-.116-48.606 .014-54.876-21.942-61.139-43.905-67.435-65.854M-143.843 .014C-143.864-21.949-143.843-43.905-143.85-65.861-139.135-65.875-134.419-65.875-129.704-65.854-129.648-51.201-129.82-36.541-129.621-21.894-125.83-36.562-121.88-51.194-118.075-65.861-112.887-65.875-107.699-65.875-102.512-65.854-98.994-51.816-95.044-37.882-91.773-23.79-91.349-27.328-91.541-30.895-91.5-34.446-91.485-44.925-91.513-55.403-91.479-65.882-86.277-65.861-81.069-65.868-75.867-65.875-75.867-43.912-75.854-21.956-75.867 0-82.54 .034-89.207-.007-95.873 .021-100.547-17.623-105.181-35.274-109.883-52.912-114.215-35.247-118.698-17.609-123.133 .027-130.039-.014-136.944 .027-143.843 .014M114.681 274.972C124.975 274.999 135.275 274.972 145.568 274.985 145.575 149.463 145.59 23.941 145.562-101.581 26.385-101.574-92.793-101.574-211.97-101.581-216.172-101.697-220.512-101.491-224.379-99.671-232.441-96.215-238.026-87.77-237.923-78.981-237.944-48.572-237.923-18.171-237.93 12.231-227.623 18.479-217.268 24.653-206.974 30.915-99.753 30.998 7.468 30.819 114.681 31.005 114.736 112.327 114.736 193.649 114.681 274.972" fill="#36687f"/>
<path transform="matrix(1,0,0,-1,347.0889,372.41889)" d="M0 0C2.245-9.459 4.579-18.896 6.837-28.355 2.341-28.355-2.163-28.376-6.659-28.342-4.483-18.883-2.245-9.438 0 0" fill="#36687f"/>
</g>
</g>
</svg>
